HIERARCHY
ROOT Pelvis
{
	OFFSET 0.000000 0.000000 0.000000
	CHANNELS 6 Xposition Yposition Zposition Xrotation Yrotation Zrotation
	JOINT LeftUpLeg_virtual
	{
		OFFSET 0.000000 0.000000 0.000000
		CHANNELS 3 Xrotation Yrotation Zrotation
		JOINT LeftUpLeg
		{
			OFFSET 18.735201 -5.666702 -4.541200
			CHANNELS 3 Xrotation Yrotation Zrotation
			JOINT LeftLeg
			{
				OFFSET -0.021200 -31.938179 0.493100
				CHANNELS 3 Xrotation Yrotation Zrotation
				JOINT LeftFoot
				{
					OFFSET 0.021200 -31.938179 -4.336299
					CHANNELS 3 Xrotation Yrotation Zrotation
					JOINT LeftToeBase
					{
						OFFSET 0.943001 -26.722000 15.023500
						CHANNELS 3 Xrotation Yrotation Zrotation
						End Site
						{
							OFFSET 0 0 0
						}
					}
				}
			}
		}
	}
	JOINT RightUpLeg_virtual
	{
		OFFSET 0.000000 0.000000 0.000000
		CHANNELS 3 Xrotation Yrotation Zrotation
		JOINT RightUpLeg
		{
			OFFSET -18.735201 -5.666702 -4.541200
			CHANNELS 3 Xrotation Yrotation Zrotation
			JOINT RightLeg
			{
				OFFSET 0.018946 -31.938133 0.493100
				CHANNELS 3 Xrotation Yrotation Zrotation
				JOINT RightFoot
				{
					OFFSET -0.018946 -31.938126 -4.336299
					CHANNELS 3 Xrotation Yrotation Zrotation
					JOINT RightToeBase
					{
						OFFSET -0.943001 -26.722004 15.023500
						CHANNELS 3 Xrotation Yrotation Zrotation
						End Site
						{
							OFFSET 0 0 0
						}
					}
				}
			}
		}
	}
	JOINT Hips_virtual
	{
		OFFSET 0.000000 0.000000 0.000000
		CHANNELS 3 Xrotation Yrotation Zrotation
		JOINT Hips
		{
			OFFSET -0.000000 -0.000000 -0.000000
			CHANNELS 3 Xrotation Yrotation Zrotation
			JOINT Spine
			{
				OFFSET 0.000000 10.199997 -0.299500
				CHANNELS 3 Xrotation Yrotation Zrotation
				JOINT Spine1
				{
					OFFSET 0.000000 11.900002 -1.516600
					CHANNELS 3 Xrotation Yrotation Zrotation
					JOINT Spine2
					{
						OFFSET 0.000000 13.600006 -2.842500
						CHANNELS 3 Xrotation Yrotation Zrotation
						JOINT Neck_virtual
						{
							OFFSET 0.000000 0.000000 0.000000
							CHANNELS 3 Xrotation Yrotation Zrotation
							JOINT Neck
							{
								OFFSET 0.000000 9.624100 -2.890100
								CHANNELS 3 Xrotation Yrotation Zrotation
								JOINT Head
								{
									OFFSET 0.000000 14.068802 -1.351900
									CHANNELS 3 Xrotation Yrotation Zrotation
									End Site
									{
										OFFSET 0 0 0
									}
								}
							}
						}
						JOINT LeftShoulder_virtual
						{
							OFFSET 0.000000 0.000000 0.000000
							CHANNELS 3 Xrotation Yrotation Zrotation
							JOINT LeftShoulder
							{
								OFFSET 15.263000 10.923401 -0.547700
								CHANNELS 3 Xrotation Yrotation Zrotation
								JOINT LeftArm
								{
									OFFSET 25.438599 -2.830597 -13.032500
									CHANNELS 3 Xrotation Yrotation Zrotation
									JOINT LeftForeArm
									{
										OFFSET 29.960503 0.000000 0.000000
										CHANNELS 3 Xrotation Yrotation Zrotation
										JOINT LeftHand
										{
											OFFSET 27.849251 0.000000 0.000000
											CHANNELS 3 Xrotation Yrotation Zrotation
											End Site
											{
												OFFSET 0 0 0
											}
										}
									}
								}
							}
						}
						JOINT RightShoulder_virtual
						{
							OFFSET 0.000000 0.000000 0.000000
							CHANNELS 3 Xrotation Yrotation Zrotation
							JOINT RightShoulder
							{
								OFFSET -15.263000 10.923401 -0.547700
								CHANNELS 3 Xrotation Yrotation Zrotation
								JOINT RightArm
								{
									OFFSET -25.438599 -2.830597 -13.032500
									CHANNELS 3 Xrotation Yrotation Zrotation
									JOINT RightForeArm
									{
										OFFSET -29.960503 0.000000 0.000000
										CHANNELS 3 Xrotation Yrotation Zrotation
										JOINT RightHand
										{
											OFFSET -27.849251 0.000000 0.000000
											CHANNELS 3 Xrotation Yrotation Zrotation
											End Site
											{
												OFFSET 0 0 0
											}
										}
									}
								}
							}
						}
					}
				}
			}
		}
	}
}
MOTION
Frames: 13
Frame Time: 0.03333333
2.994179 74.338554 -52.836601 0.000000 0.000000 0.000000 15.100988 -70.427768 17.302987 -39.934251 -11.127204 19.455411 52.469452 -1.894428 -6.792983 -6.343640 1.638653 -15.562789 0.000000 0.000000 0.000000 2.167021 -52.839969 -1.111178 -35.788047 -16.979594 -24.052928 58.841417 10.675932 -4.193424 -6.990198 7.600450 15.329012 0.000000 0.000000 0.000000 16.006014 -9.128101 3.170526 -21.764492 -72.321055 -9.158031 13.035226 22.803130 -6.531288 10.076306 12.139527 -6.463055 0.000000 0.000000 0.000000 12.537151 12.396785 -6.100808 0.600862 3.767308 -0.062120 0.000000 0.000000 0.000000 12.580216 14.230693 -6.284967 2.188761 8.502919 -0.659865 -36.936871 -36.997140 -45.496693 166.643010 -83.720893 173.862178 0.000000 0.000000 0.000000 14.366932 13.816547 -7.881821 3.558007 20.538264 -6.297373 -35.529927 5.029063 9.304933 -11.326498 35.110331 2.466390 0.000000 0.000000 0.000000 
3.205926 73.763092 -52.835091 0.000000 0.000000 0.000000 14.813992 -70.034185 17.704376 -40.654618 -11.235021 20.146053 53.762352 -2.319476 -6.788674 -5.424447 1.233816 -15.886919 0.000000 0.000000 0.000000 2.884537 -51.866319 -0.396825 -35.331776 -16.905338 -23.597308 59.797329 10.344253 -4.101501 -6.484070 7.309170 15.308694 0.000000 0.000000 0.000000 16.402949 -9.209364 3.394687 -17.405713 -71.970311 -5.212011 13.469108 22.171474 -6.868025 10.443605 11.804941 -6.725750 0.000000 0.000000 0.000000 12.651255 12.601952 -6.103436 0.607750 4.032189 -0.047219 0.000000 0.000000 0.000000 12.761272 13.928507 -6.407195 2.264317 8.136611 -1.244670 -32.649998 -34.154013 -44.758680 148.771096 -87.709191 155.202348 0.000000 0.000000 0.000000 14.480524 13.740883 -7.698040 3.373722 20.179994 -5.312449 -32.542047 2.094884 12.018822 -10.670740 34.308006 3.599943 0.000000 0.000000 0.000000 
3.515254 73.397568 -52.807266 0.000000 0.000000 0.000000 14.519502 -69.854592 18.058506 -41.415262 -11.385999 20.720463 54.963372 -2.529353 -6.787565 -4.462563 1.002008 -16.086269 0.000000 0.000000 0.000000 3.630492 -50.738269 0.426939 -34.859158 -16.824267 -23.017490 60.629226 9.943593 -3.960479 -5.999243 6.946134 15.271113 0.000000 0.000000 0.000000 16.702729 -9.286993 3.628591 -13.349754 -71.404567 -1.387375 13.862830 21.612954 -7.149810 10.781625 11.507443 -6.947111 0.000000 0.000000 0.000000 12.692132 12.795519 -6.067092 0.587268 4.283987 -0.023048 0.000000 0.000000 0.000000 12.911135 13.659683 -6.513087 2.333458 7.926820 -1.842674 -28.734777 -30.844783 -44.489930 19.806973 -87.445034 25.456219 0.000000 0.000000 0.000000 14.579375 13.664142 -7.469906 3.193163 19.810247 -4.154433 -29.397790 -0.811739 14.933150 -9.994671 33.394680 4.693723 0.000000 0.000000 0.000000 
3.782377 73.259026 -52.736000 0.000000 0.000000 0.000000 14.048195 -69.682123 18.185792 -42.180414 -11.511482 21.175395 55.964716 -2.506755 -6.823756 -3.520723 0.979584 -16.184333 0.000000 0.000000 0.000000 4.284311 -49.654673 1.167236 -34.417200 -16.743271 -22.462448 61.328146 9.556292 -3.833326 -5.602106 6.592461 15.204505 0.000000 0.000000 0.000000 16.862040 -9.482134 3.885372 -10.245894 -70.816460 1.737672 14.210816 21.089000 -7.372277 11.087340 11.225670 -7.125063 0.000000 0.000000 0.000000 12.763548 12.964948 -6.051831 0.584281 4.529530 -0.016733 0.000000 0.000000 0.000000 13.041034 13.415304 -6.611854 2.409706 7.878896 -2.489633 -25.154530 -27.262297 -44.766665 4.295310 -83.186978 9.156087 0.000000 0.000000 0.000000 14.676391 13.581196 -7.244857 3.050805 19.480818 -3.026587 -26.326734 -3.453042 17.664959 -9.355559 32.645357 5.621630 0.000000 0.000000 0.000000 
3.965699 73.329224 -52.517471 0.000000 0.000000 0.000000 13.380891 -69.381471 18.040932 -42.878760 -11.565256 21.521255 56.743917 -2.336658 -6.902159 -2.635620 1.103340 -16.240781 0.000000 0.000000 0.000000 4.869672 -48.478839 1.868282 -33.980990 -16.638699 -21.879589 61.839686 9.136156 -3.666753 -5.286881 6.188377 15.133485 0.000000 0.000000 0.000000 16.974577 -9.818636 4.191144 -7.446384 -70.487901 4.761092 14.449482 20.609862 -7.533824 11.316740 10.969651 -7.264895 0.000000 0.000000 0.000000 12.846506 13.094122 -6.036226 0.593876 4.762280 -0.017507 0.000000 0.000000 0.000000 13.164780 13.187383 -6.706929 2.512313 7.977412 -3.191581 -21.735568 -23.626832 -45.548401 0.925842 -78.863147 4.947515 0.000000 0.000000 0.000000 14.760151 13.471443 -7.017008 2.932792 19.137393 -1.910406 -23.391549 -5.826647 20.225199 -8.774856 32.139865 6.417818 0.000000 0.000000 0.000000 
4.035937 73.456741 -52.411942 0.000000 0.000000 0.000000 12.456667 -68.919956 17.597566 -43.531801 -11.555622 21.765059 57.220931 -2.081442 -6.979644 -1.903541 1.308016 -16.236618 0.000000 0.000000 0.000000 5.217459 -47.177947 2.348000 -33.645389 -16.448672 -21.364857 62.101610 8.708002 -3.503412 -5.098987 5.771060 15.018693 0.000000 0.000000 0.000000 17.068919 -10.280651 4.589625 -3.999739 -70.249308 8.675099 14.644233 20.188005 -7.505183 11.510099 10.747396 -7.291095 0.000000 0.000000 0.000000 12.910196 13.179164 -5.987581 0.607603 4.972832 -0.011415 0.000000 0.000000 0.000000 13.213968 12.970678 -6.798553 2.577953 8.176834 -3.978447 -18.006914 -19.988127 -46.925862 -0.202343 -74.455455 2.764952 0.000000 0.000000 0.000000 14.862055 13.355777 -6.749385 2.852023 18.851739 -0.642206 -20.376228 -7.660071 23.025411 -8.221850 32.200886 7.257178 0.000000 0.000000 0.000000 
4.104159 73.640160 -52.230995 0.000000 0.000000 0.000000 11.399957 -68.327997 16.994341 -44.117753 -11.507248 21.943449 57.346589 -1.827581 -6.998482 -1.382839 1.494273 -16.157574 0.000000 0.000000 0.000000 5.347120 -45.810967 2.631981 -33.401684 -16.196463 -20.912137 62.071475 8.281855 -3.328792 -5.061609 5.337705 14.885931 0.000000 0.000000 0.000000 17.097044 -10.763506 4.974623 -1.003172 -69.992022 12.227504 14.826377 19.790564 -7.383023 11.678925 10.537602 -7.255768 0.000000 0.000000 0.000000 12.948847 13.229380 -5.899286 0.621009 5.165565 0.005250 0.000000 0.000000 0.000000 13.170960 12.757489 -6.861661 2.578821 8.410125 -4.748198 -14.688694 -16.662330 -48.623526 -0.729054 -70.302809 1.193085 0.000000 0.000000 0.000000 14.938853 13.220885 -6.443565 2.759853 18.544783 0.739478 -17.589998 -9.485324 25.900117 -7.804978 32.302632 8.128503 0.000000 0.000000 0.000000 
4.092720 73.884026 -51.929321 0.000000 0.000000 0.000000 10.276194 -67.698608 16.262071 -44.653673 -11.424286 22.026397 57.207031 -1.504268 -7.003948 -1.053640 1.750085 -16.003908 0.000000 0.000000 0.000000 5.301306 -44.401076 2.718770 -33.220493 -15.887063 -20.551378 61.770742 7.884747 -3.150243 -5.189643 4.907148 14.755000 0.000000 0.000000 0.000000 17.043118 -11.327467 5.289494 1.059164 -69.722510 14.704581 14.983765 19.378611 -7.262818 11.813625 10.321673 -7.210940 0.000000 0.000000 0.000000 12.985599 13.235145 -5.801223 0.641953 5.327197 0.022715 0.000000 0.000000 0.000000 13.094523 12.542926 -6.922540 2.578695 8.685204 -5.561555 -11.524582 -13.631097 -50.480774 -0.883556 -66.381782 -0.010830 0.000000 0.000000 0.000000 14.961543 13.076138 -6.113172 2.630753 18.217848 2.199840 -15.328900 -11.310061 28.779890 -7.651336 32.482966 9.071890 0.000000 0.000000 0.000000 
3.988070 74.162621 -51.571991 0.000000 0.000000 0.000000 9.265479 -67.087607 15.562504 -45.083845 -11.324479 22.053146 56.837675 -1.173939 -6.988802 -0.902579 2.016474 -15.813158 0.000000 0.000000 0.000000 5.236250 -42.920431 2.746218 -32.989752 -15.557124 -20.210555 61.220037 7.509956 -2.970557 -5.451470 4.482721 14.620826 0.000000 0.000000 0.000000 16.921800 -11.976272 5.567362 2.532140 -69.532132 16.497390 15.147573 18.927661 -7.105880 11.929568 10.088842 -7.128976 0.000000 0.000000 0.000000 13.022971 13.163086 -5.673399 0.665010 5.438624 0.043111 0.000000 0.000000 0.000000 13.018826 12.299712 -6.934825 2.595147 8.887999 -6.237181 -8.744124 -11.194300 -52.371370 -0.928178 -63.123126 -1.035105 0.000000 0.000000 0.000000 14.988188 12.901486 -5.764410 2.520882 17.826042 3.661448 -13.531605 -13.230029 31.485232 -7.686897 32.547398 9.988583 0.000000 0.000000 0.000000 
3.843663 74.509834 -51.162300 0.000000 0.000000 0.000000 8.413313 -66.520414 14.930758 -45.376509 -11.217296 22.027760 56.237179 -0.864331 -6.948309 -0.934535 2.265860 -15.600751 0.000000 0.000000 0.000000 5.138845 -41.510645 2.696484 -32.747581 -15.231373 -19.930331 60.514144 7.168856 -2.775338 -5.814880 4.064786 14.523892 0.000000 0.000000 0.000000 16.795225 -12.654019 5.755981 3.744494 -69.359157 17.659174 15.244274 18.448177 -6.899789 11.988860 9.843899 -7.009304 0.000000 0.000000 0.000000 13.041941 13.024419 -5.539904 0.696907 5.502597 0.061953 0.000000 0.000000 0.000000 12.896430 12.032720 -6.916012 2.585620 9.022290 -6.858552 -6.410951 -9.086179 -54.375098 -0.935925 -60.448841 -1.971929 0.000000 0.000000 0.000000 14.948463 12.712791 -5.398570 2.381311 17.392151 5.178841 -12.351800 -15.258571 33.909239 -7.938718 32.468124 10.848577 0.000000 0.000000 0.000000 
3.575388 74.920639 -50.655472 0.000000 0.000000 0.000000 7.519324 -65.871574 14.144217 -45.600505 -11.031106 21.894322 55.434345 -0.673188 -6.917606 -1.114757 2.422824 -15.491928 0.000000 0.000000 0.000000 5.007748 -40.131716 2.595539 -32.530080 -14.896687 -19.695197 59.724014 6.870995 -2.574905 -6.246342 3.669537 14.466445 0.000000 0.000000 0.000000 16.602779 -13.120453 5.812224 4.052441 -68.935692 17.679711 15.339765 17.986210 -6.707676 12.026946 9.610920 -6.887041 0.000000 0.000000 0.000000 13.047929 12.837790 -5.419391 0.726465 5.529806 0.072814 0.000000 0.000000 0.000000 12.791220 11.757345 -6.879865 2.613337 9.168597 -7.425633 -4.168500 -7.226793 -56.338952 -0.852540 -58.109036 -2.780107 0.000000 0.000000 0.000000 14.846851 12.504533 -5.054138 2.215447 16.897623 6.586862 -11.791797 -17.370701 35.793179 -8.359881 32.272056 11.534354 0.000000 0.000000 0.000000 
3.260353 75.421967 -50.151367 0.000000 0.000000 0.000000 6.753972 -65.219496 13.386423 -45.706834 -10.810642 21.709562 54.478091 -0.568466 -6.867149 -1.435172 2.499953 -15.416908 0.000000 0.000000 0.000000 4.897147 -38.997935 2.443868 -32.301505 -14.612691 -19.552714 58.856485 6.574590 -2.376561 -6.721426 3.273335 14.404924 0.000000 0.000000 0.000000 16.343581 -13.493769 5.801994 3.986116 -68.371935 17.239944 15.432230 17.487648 -6.498492 12.046337 9.358310 -6.746945 0.000000 0.000000 0.000000 13.003119 12.581876 -5.301164 0.732566 5.515036 0.071766 0.000000 0.000000 0.000000 12.685248 11.459301 -6.806456 2.653930 9.232681 -7.882998 -2.175643 -5.777498 -58.205991 -0.773118 -56.135429 -3.526137 0.000000 0.000000 0.000000 14.729783 12.256536 -4.737579 2.072823 16.340179 7.799194 -11.695909 -19.438496 37.098487 -8.854734 32.073332 11.997822 0.000000 0.000000 0.000000 
2.968702 75.908096 -49.639618 0.000000 0.000000 0.000000 6.060610 -64.621950 12.625727 -45.747617 -10.579148 21.461202 53.423820 -0.556534 -6.810292 -1.869945 2.495210 -15.394606 0.000000 0.000000 0.000000 4.825287 -38.160564 2.232981 -32.039079 -14.393720 -19.519999 57.931971 6.294985 -2.187201 -7.215770 2.897247 14.344743 0.000000 0.000000 0.000000 15.967461 -13.862662 5.723663 3.159726 -67.813424 16.079235 15.515996 16.993786 -6.275402 12.039044 9.108095 -6.591702 0.000000 0.000000 0.000000 12.896183 12.299520 -5.161406 0.720866 5.480053 0.077667 0.000000 0.000000 0.000000 12.555879 11.144116 -6.709628 2.687155 9.225239 -8.264334 -0.407935 -4.706949 -59.959007 -0.633741 -54.537404 -4.180808 0.000000 0.000000 0.000000 14.598812 11.994622 -4.456591 1.976659 15.816758 8.829111 -11.885642 -21.369048 37.899156 -9.348382 31.890010 12.236619 0.000000 0.000000 0.000000 
